<svg width="125" height="125" viewBox="0 0 125 125" fill="none" xmlns="http://www.w3.org/2000/svg">
<path fill-rule="evenodd" clip-rule="evenodd" d="M62.5007 0.816895C69.2656 0.816895 74.7495 4.62196 74.7495 13.3966C74.7495 22.1712 69.2654 29.2848 62.5007 29.2848C55.7356 29.2848 50.252 22.1712 50.252 13.3966C50.252 4.62172 55.7361 0.816895 62.5007 0.816895Z" fill="#F6DCCD"/>
<path fill-rule="evenodd" clip-rule="evenodd" d="M62.5 0.816895C69.2649 0.816895 74.7488 4.62172 74.7488 13.3966C74.7488 22.1712 69.2646 29.2848 62.5 29.2848V0.816895Z" fill="#F1CBBC"/>
<path fill-rule="evenodd" clip-rule="evenodd" d="M39.0613 69.2153H85.9397C88.0217 69.2153 89.72 67.5393 89.72 65.4845V44.8123C89.72 38.8341 84.3247 35.4394 78.1863 33.9366C67.8794 31.4131 57.4299 31.2425 46.8147 33.9366C40.6909 35.4902 35.2812 38.8307 35.2812 44.8123V65.4845C35.2812 67.5393 36.9792 69.2153 39.0613 69.2153Z" fill="#FFD944"/>
<path fill-rule="evenodd" clip-rule="evenodd" d="M62.5 69.2152H85.9392C88.0212 69.2152 89.7195 67.5392 89.7195 65.4844V44.8122C89.7195 38.834 84.3242 35.4393 78.1858 33.9365C72.9944 32.6655 67.7668 31.9918 62.5 31.98V69.2152Z" fill="#FFC107"/>
<path fill-rule="evenodd" clip-rule="evenodd" d="M75.335 69.2157H79.3672V50.4224C79.3672 49.3234 78.4646 48.4326 77.3511 48.4326C76.2375 48.4326 75.335 49.3236 75.335 50.4224V69.2157Z" fill="#FAAB23"/>
<path fill-rule="evenodd" clip-rule="evenodd" d="M45.6338 69.2157H49.666V50.4224C49.666 49.3234 48.7634 48.4326 47.6499 48.4326C46.5366 48.4326 45.6338 49.3236 45.6338 50.4224V69.2157Z" fill="#FFC107"/>
<path fill-rule="evenodd" clip-rule="evenodd" d="M43.7766 120.574L43.8103 97.2412C43.8164 93.0918 43.2612 89.1925 40.1384 86.4149C36.6575 83.318 30.3289 78.6277 25.457 72.9427C23.3054 71.0284 20.0566 70.9216 18.0086 72.943C15.96 74.9648 15.8928 77.6976 18.0078 80.2945L16.3506 78.2814C14.4517 75.9743 13.4385 73.4388 13.45 70.4662L13.5322 49.1806C13.5957 32.6349 1.29053 37.2216 1.13062 42.8017L0.00562248 81.9862C-0.0974049 85.5899 1.21729 88.7196 3.80079 91.2688L21.7593 108.993V120.569C21.7593 122.56 23.4043 124.183 25.4214 124.183H40.1145C42.1296 124.183 43.7737 122.563 43.7766 120.574Z" fill="#F6DCCD"/>
<path fill-rule="evenodd" clip-rule="evenodd" d="M17.2246 73.894C15.9893 75.7783 16.209 78.0858 18.0081 80.2948C20.9375 83.205 23.8879 86.0981 26.8272 88.9991C27.6145 89.7762 28.8909 89.7762 29.6782 88.9991C30.4656 88.2221 30.4656 86.9624 29.6782 86.1853L17.2246 73.894Z" fill="#F1CBBC"/>
<path fill-rule="evenodd" clip-rule="evenodd" d="M43.7771 120.574L43.8108 97.2411C43.8169 93.0917 43.2617 89.1925 40.1389 86.4148C38.2766 84.758 35.5989 82.6447 32.7656 80.1675V124.183H40.1147C42.1301 124.183 43.7742 122.563 43.7771 120.574Z" fill="#F1CBBC"/>
<path fill-rule="evenodd" clip-rule="evenodd" d="M81.2232 120.574L81.1895 97.2412C81.1834 93.0918 81.7386 89.1925 84.8611 86.4149C88.3421 83.318 94.6709 78.6277 99.5425 72.9427C101.694 71.0281 104.943 70.9216 106.991 72.943C109.04 74.9648 109.107 77.6976 106.992 80.2945L108.649 78.2814C110.548 75.9743 111.561 73.4388 111.55 70.4662L111.468 49.1806C111.404 32.6349 123.709 37.2216 123.869 42.8017L124.994 81.986C125.097 85.5896 123.783 88.7193 121.199 91.2686L103.241 108.992V120.569C103.241 122.56 101.596 124.183 99.5784 124.183H84.8853C82.8702 124.183 81.2261 122.563 81.2232 120.574Z" fill="#F6DCCD"/>
<path fill-rule="evenodd" clip-rule="evenodd" d="M107.776 73.894C109.011 75.7785 108.791 78.0858 106.992 80.2948C104.063 83.205 101.112 86.0981 98.173 88.9991C97.3857 89.7759 96.1093 89.7759 95.322 88.9991C94.5346 88.2221 94.5346 86.9624 95.322 86.1853L107.776 73.894Z" fill="#F1CBBC"/>
<path fill-rule="evenodd" clip-rule="evenodd" d="M81.2232 120.574L81.1895 97.2411C81.1834 93.0917 81.7386 89.1925 84.8611 86.4148C86.7234 84.7578 89.4009 82.6447 92.2344 80.1675V124.183H84.8853C82.8702 124.183 81.2261 122.563 81.2232 120.574Z" fill="#F1CBBC"/>
</svg>
