<svg width="125" height="112" viewBox="0 0 125 112" fill="none" xmlns="http://www.w3.org/2000/svg">
<path d="M125 37.9607C125 48.5303 121.061 58.2101 112.604 68.4135C105.037 77.5439 94.1639 86.8108 81.5706 97.5415C77.2676 101.207 72.3915 105.364 67.3323 109.791C66.0067 110.95 64.3082 111.594 62.5439 111.604H62.5C60.7204 111.604 59.0048 110.96 57.6677 109.789C52.618 105.373 47.7495 101.222 43.4542 97.5606L43.4322 97.5444C30.8409 86.8127 19.9633 77.5439 12.3978 68.4135C3.93867 58.2101 0 48.5303 0 37.9607C0 27.6906 3.52192 18.214 9.9163 11.2779C16.3879 4.25884 25.2666 0.395508 34.9197 0.395508C42.1362 0.395508 48.7423 2.67479 54.5607 7.17327C57.497 9.44492 60.1568 12.222 62.5 15.4655L62.5439 15.4073C64.8775 12.1886 67.523 9.43062 70.4412 7.17327C76.2577 2.67479 82.8667 0.395508 90.0803 0.395508C99.7353 0.395508 108.614 4.25884 115.084 11.2779C121.478 18.214 125 27.6878 125 37.9607Z" fill="#FF5E95"/>
<path d="M125 37.9607C125 48.5303 121.061 58.2101 112.604 68.4135C105.037 77.5439 94.164 86.8108 81.5707 97.5415C77.2677 101.207 72.3916 105.364 67.3323 109.791C66.0067 110.95 64.3082 111.594 62.5439 111.604V15.4073C64.8776 12.1886 67.5231 9.43062 70.4413 7.17327C76.2578 2.67479 82.8667 0.395508 90.0803 0.395508C99.7353 0.395508 108.614 4.25884 115.084 11.2779C121.478 18.214 125 27.6878 125 37.9607Z" fill="#FF3980"/>
</svg>
