<svg width="942" height="263" viewBox="0 0 942 263" fill="none" xmlns="http://www.w3.org/2000/svg">
<rect x="15.7334" y="19.2209" width="8.21018" height="251.002" transform="rotate(-30.3917 15.7334 19.2209)" fill="#717483"/>
<rect width="8.21018" height="251.002" transform="matrix(-0.862587 -0.50591 -0.50591 0.862587 272.606 18.4463)" fill="#717483"/>
<circle cx="30.0089" cy="31.2624" r="29.3378" transform="rotate(178.674 30.0089 31.2624)" fill="#F57200"/>
<circle cx="142.471" cy="231.738" r="29.3378" transform="rotate(178.674 142.471 231.738)" fill="#FFD54D"/>
<circle cx="255.991" cy="31.2623" r="29.3378" transform="rotate(178.674 255.991 31.2623)" fill="#084887"/>
<path d="M331.216 243V183.36H356.5C359.244 183.36 361.764 183.92 364.06 185.04C366.356 186.16 368.344 187.672 370.024 189.576C371.76 191.48 373.104 193.608 374.056 195.96C375.008 198.312 375.484 200.72 375.484 203.184C375.484 206.544 374.7 209.736 373.132 212.76C371.564 215.784 369.408 218.248 366.664 220.152C363.92 222.056 360.672 223.008 356.92 223.008H342.808V243H331.216ZM342.808 212.844H356.248C357.648 212.844 358.908 212.452 360.028 211.668C361.148 210.884 362.044 209.764 362.716 208.308C363.388 206.796 363.724 205.088 363.724 203.184C363.724 201.112 363.332 199.348 362.548 197.892C361.82 196.436 360.84 195.344 359.608 194.616C358.432 193.888 357.144 193.524 355.744 193.524H342.808V212.844ZM419.168 243H407.912V218.304C407.912 214.888 407.24 212.34 405.896 210.66C404.608 208.98 402.816 208.14 400.52 208.14C399.176 208.14 397.748 208.532 396.236 209.316C394.724 210.1 393.352 211.192 392.12 212.592C390.944 213.936 390.076 215.504 389.516 217.296V243H378.26V181.68H389.516V207.132C391.14 204.332 393.352 202.148 396.152 200.58C398.952 199.012 402.004 198.228 405.308 198.228C408.164 198.228 410.488 198.732 412.28 199.74C414.072 200.692 415.472 202.008 416.48 203.688C417.488 205.312 418.188 207.16 418.58 209.232C418.972 211.248 419.168 213.348 419.168 215.532V243ZM424.859 251.568C425.867 251.792 426.791 251.988 427.631 252.156C428.527 252.324 429.283 252.408 429.899 252.408C430.963 252.408 431.831 252.128 432.503 251.568C433.231 251.064 433.931 250.112 434.603 248.712C435.275 247.368 435.975 245.464 436.703 243L419.315 198.984H430.991L442.835 231.492L453.251 198.984H464.003L445.523 251.736C444.851 253.696 443.815 255.46 442.415 257.028C441.071 258.652 439.363 259.912 437.291 260.808C435.275 261.76 433.007 262.236 430.487 262.236C429.591 262.236 428.695 262.152 427.799 261.984C426.903 261.872 425.923 261.648 424.859 261.312V251.568ZM481.064 243.84C477.312 243.84 473.728 243.224 470.312 241.992C466.896 240.76 463.956 238.94 461.492 236.532L465.524 229.224C468.156 231.352 470.732 232.92 473.252 233.928C475.828 234.936 478.292 235.44 480.644 235.44C482.828 235.44 484.564 235.048 485.852 234.264C487.196 233.48 487.868 232.304 487.868 230.736C487.868 229.672 487.504 228.86 486.776 228.3C486.048 227.684 484.984 227.152 483.584 226.704C482.24 226.256 480.588 225.752 478.628 225.192C475.38 224.128 472.664 223.092 470.48 222.084C468.296 221.076 466.644 219.816 465.524 218.304C464.46 216.736 463.928 214.748 463.928 212.34C463.928 209.428 464.656 206.936 466.112 204.864C467.624 202.736 469.696 201.084 472.328 199.908C475.016 198.732 478.152 198.144 481.736 198.144C484.872 198.144 487.84 198.648 490.64 199.656C493.44 200.608 495.988 202.176 498.284 204.36L493.748 211.5C491.508 209.764 489.38 208.504 487.364 207.72C485.348 206.88 483.304 206.46 481.232 206.46C480.056 206.46 478.936 206.6 477.872 206.88C476.864 207.16 476.024 207.636 475.352 208.308C474.736 208.924 474.428 209.82 474.428 210.996C474.428 212.06 474.708 212.9 475.268 213.516C475.884 214.076 476.78 214.58 477.956 215.028C479.188 215.476 480.672 215.98 482.408 216.54C485.936 217.548 488.904 218.584 491.312 219.648C493.776 220.712 495.624 222.028 496.856 223.596C498.088 225.108 498.704 227.208 498.704 229.896C498.704 234.264 497.108 237.68 493.916 240.144C490.724 242.608 486.44 243.84 481.064 243.84ZM502.16 243V198.984H513.416V243H502.16ZM502.16 192.852V181.68H513.416V192.852H502.16ZM539.866 243.84C536.282 243.84 533.062 243.252 530.206 242.076C527.35 240.844 524.914 239.164 522.898 237.036C520.882 234.852 519.314 232.388 518.194 229.644C517.13 226.9 516.598 224.016 516.598 220.992C516.598 216.848 517.522 213.068 519.37 209.652C521.274 206.18 523.962 203.408 527.434 201.336C530.906 199.264 535.022 198.228 539.782 198.228C544.542 198.228 548.63 199.264 552.046 201.336C555.462 203.408 558.01 206.124 559.69 209.484L548.686 212.844C547.734 211.22 546.474 209.988 544.906 209.148C543.338 208.252 541.602 207.804 539.698 207.804C537.57 207.804 535.61 208.364 533.818 209.484C532.082 210.548 530.71 212.088 529.702 214.104C528.694 216.064 528.19 218.36 528.19 220.992C528.19 223.568 528.694 225.864 529.702 227.88C530.766 229.84 532.166 231.408 533.902 232.584C535.638 233.704 537.57 234.264 539.698 234.264C541.042 234.264 542.302 234.04 543.478 233.592C544.71 233.144 545.802 232.528 546.754 231.744C547.706 230.96 548.406 230.064 548.854 229.056L559.858 232.416C558.85 234.6 557.366 236.56 555.406 238.296C553.502 240.032 551.234 241.404 548.602 242.412C546.026 243.364 543.114 243.84 539.866 243.84ZM559.56 229.98C559.56 227.124 560.344 224.632 561.912 222.504C563.536 220.32 565.776 218.64 568.632 217.464C571.488 216.288 574.764 215.7 578.46 215.7C580.308 215.7 582.184 215.84 584.088 216.12C585.992 216.4 587.644 216.848 589.044 217.464V215.112C589.044 212.312 588.204 210.156 586.524 208.644C584.9 207.132 582.464 206.376 579.216 206.376C576.808 206.376 574.512 206.796 572.328 207.636C570.144 208.476 567.848 209.708 565.44 211.332L561.828 203.94C564.74 202.036 567.708 200.608 570.732 199.656C573.812 198.704 577.032 198.228 580.392 198.228C586.664 198.228 591.536 199.796 595.008 202.932C598.536 206.068 600.3 210.548 600.3 216.372V230.4C600.3 231.576 600.496 232.416 600.888 232.92C601.336 233.424 602.036 233.732 602.988 233.844V243C601.98 243.168 601.056 243.308 600.216 243.42C599.432 243.532 598.76 243.588 598.2 243.588C595.96 243.588 594.252 243.084 593.076 242.076C591.956 241.068 591.256 239.836 590.976 238.38L590.724 236.112C588.82 238.576 586.44 240.48 583.584 241.824C580.728 243.168 577.816 243.84 574.848 243.84C571.936 243.84 569.304 243.252 566.952 242.076C564.656 240.844 562.836 239.192 561.492 237.12C560.204 234.992 559.56 232.612 559.56 229.98ZM586.944 232.248C587.56 231.576 588.064 230.904 588.456 230.232C588.848 229.56 589.044 228.944 589.044 228.384V223.932C587.7 223.372 586.244 222.952 584.676 222.672C583.108 222.336 581.624 222.168 580.224 222.168C577.312 222.168 574.904 222.812 573 224.1C571.152 225.332 570.228 226.984 570.228 229.056C570.228 230.176 570.536 231.24 571.152 232.248C571.768 233.256 572.664 234.068 573.84 234.684C575.016 235.3 576.416 235.608 578.04 235.608C579.72 235.608 581.372 235.3 582.996 234.684C584.62 234.012 585.936 233.2 586.944 232.248ZM606.534 181.68H617.79V228.888C617.79 230.904 618.126 232.276 618.798 233.004C619.47 233.676 620.394 234.012 621.57 234.012C622.466 234.012 623.39 233.9 624.342 233.676C625.294 233.452 626.134 233.172 626.862 232.836L628.374 241.404C626.862 242.132 625.098 242.692 623.082 243.084C621.066 243.476 619.246 243.672 617.622 243.672C614.094 243.672 611.35 242.748 609.39 240.9C607.486 238.996 606.534 236.308 606.534 232.836V181.68ZM685.996 193.524H666.928V243H655.42V193.524H636.352V183.36H685.996V193.524ZM729.016 243H717.76V218.304C717.76 214.888 717.088 212.34 715.744 210.66C714.456 208.98 712.664 208.14 710.368 208.14C709.024 208.14 707.596 208.532 706.084 209.316C704.572 210.1 703.2 211.192 701.968 212.592C700.792 213.936 699.924 215.504 699.364 217.296V243H688.108V181.68H699.364V207.132C700.988 204.332 703.2 202.148 706 200.58C708.8 199.012 711.852 198.228 715.156 198.228C718.012 198.228 720.336 198.732 722.128 199.74C723.92 200.692 725.32 202.008 726.328 203.688C727.336 205.312 728.036 207.16 728.428 209.232C728.82 211.248 729.016 213.348 729.016 215.532V243ZM755.015 243.84C751.487 243.84 748.295 243.252 745.439 242.076C742.583 240.844 740.147 239.192 738.131 237.12C736.115 234.992 734.547 232.584 733.427 229.896C732.363 227.152 731.831 224.268 731.831 221.244C731.831 217.044 732.755 213.208 734.603 209.736C736.507 206.264 739.195 203.492 742.667 201.42C746.195 199.292 750.339 198.228 755.099 198.228C759.915 198.228 764.031 199.292 767.447 201.42C770.863 203.492 773.467 206.264 775.259 209.736C777.107 213.152 778.031 216.848 778.031 220.824C778.031 221.496 778.003 222.196 777.947 222.924C777.891 223.596 777.835 224.156 777.779 224.604H743.759C743.983 226.844 744.627 228.804 745.691 230.484C746.811 232.164 748.211 233.452 749.891 234.348C751.627 235.188 753.475 235.608 755.435 235.608C757.675 235.608 759.775 235.076 761.735 234.012C763.751 232.892 765.123 231.436 765.851 229.644L775.511 232.332C774.447 234.572 772.907 236.56 770.891 238.296C768.931 240.032 766.607 241.404 763.919 242.412C761.231 243.364 758.263 243.84 755.015 243.84ZM743.507 217.464H766.523C766.299 215.224 765.655 213.292 764.591 211.668C763.583 209.988 762.239 208.7 760.559 207.804C758.879 206.852 757.003 206.376 754.931 206.376C752.915 206.376 751.067 206.852 749.387 207.804C747.763 208.7 746.419 209.988 745.355 211.668C744.347 213.292 743.731 215.224 743.507 217.464ZM806.897 208.728C803.481 208.728 800.429 209.4 797.741 210.744C795.053 212.032 793.121 213.908 791.945 216.372V243H780.689V198.984H791.021V208.392C792.589 205.368 794.577 202.988 796.985 201.252C799.393 199.516 801.941 198.564 804.629 198.396C805.245 198.396 805.721 198.396 806.057 198.396C806.393 198.396 806.673 198.424 806.897 198.48V208.728ZM805.703 229.98C805.703 227.124 806.487 224.632 808.055 222.504C809.679 220.32 811.919 218.64 814.775 217.464C817.631 216.288 820.907 215.7 824.603 215.7C826.451 215.7 828.327 215.84 830.231 216.12C832.135 216.4 833.787 216.848 835.187 217.464V215.112C835.187 212.312 834.347 210.156 832.667 208.644C831.043 207.132 828.607 206.376 825.359 206.376C822.951 206.376 820.655 206.796 818.471 207.636C816.287 208.476 813.991 209.708 811.583 211.332L807.971 203.94C810.883 202.036 813.851 200.608 816.875 199.656C819.955 198.704 823.175 198.228 826.535 198.228C832.807 198.228 837.679 199.796 841.151 202.932C844.679 206.068 846.443 210.548 846.443 216.372V230.4C846.443 231.576 846.639 232.416 847.031 232.92C847.479 233.424 848.179 233.732 849.131 233.844V243C848.123 243.168 847.199 243.308 846.359 243.42C845.575 243.532 844.903 243.588 844.343 243.588C842.103 243.588 840.395 243.084 839.219 242.076C838.099 241.068 837.399 239.836 837.119 238.38L836.867 236.112C834.963 238.576 832.583 240.48 829.727 241.824C826.871 243.168 823.959 243.84 820.991 243.84C818.079 243.84 815.447 243.252 813.095 242.076C810.799 240.844 808.979 239.192 807.635 237.12C806.347 234.992 805.703 232.612 805.703 229.98ZM833.087 232.248C833.703 231.576 834.207 230.904 834.599 230.232C834.991 229.56 835.187 228.944 835.187 228.384V223.932C833.843 223.372 832.387 222.952 830.819 222.672C829.251 222.336 827.767 222.168 826.367 222.168C823.455 222.168 821.047 222.812 819.143 224.1C817.295 225.332 816.371 226.984 816.371 229.056C816.371 230.176 816.679 231.24 817.295 232.248C817.911 233.256 818.807 234.068 819.983 234.684C821.159 235.3 822.559 235.608 824.183 235.608C825.863 235.608 827.515 235.3 829.139 234.684C830.763 234.012 832.079 233.2 833.087 232.248ZM879.137 243.84C875.721 243.84 872.697 243.084 870.065 241.572C867.489 240.004 865.473 237.904 864.017 235.272V260.892H852.761V198.984H862.589V206.544C864.269 203.968 866.397 201.952 868.973 200.496C871.549 198.984 874.489 198.228 877.793 198.228C880.761 198.228 883.477 198.816 885.941 199.992C888.461 201.168 890.645 202.82 892.493 204.948C894.341 207.02 895.769 209.428 896.777 212.172C897.841 214.86 898.373 217.772 898.373 220.908C898.373 225.164 897.533 229.028 895.853 232.5C894.229 235.972 891.961 238.744 889.049 240.816C886.193 242.832 882.889 243.84 879.137 243.84ZM875.357 234.264C877.093 234.264 878.661 233.9 880.061 233.172C881.461 232.444 882.665 231.464 883.673 230.232C884.737 228.944 885.521 227.516 886.025 225.948C886.585 224.324 886.865 222.644 886.865 220.908C886.865 219.06 886.557 217.352 885.941 215.784C885.381 214.216 884.541 212.844 883.421 211.668C882.301 210.436 880.985 209.484 879.473 208.812C878.017 208.14 876.421 207.804 874.685 207.804C873.621 207.804 872.529 208 871.409 208.392C870.345 208.728 869.309 209.232 868.301 209.904C867.293 210.576 866.397 211.36 865.613 212.256C864.885 213.152 864.353 214.132 864.017 215.196V225.528C864.689 227.152 865.585 228.636 866.705 229.98C867.881 231.324 869.225 232.388 870.737 233.172C872.249 233.9 873.789 234.264 875.357 234.264ZM901.247 251.568C902.255 251.792 903.179 251.988 904.019 252.156C904.915 252.324 905.671 252.408 906.287 252.408C907.351 252.408 908.219 252.128 908.891 251.568C909.619 251.064 910.319 250.112 910.991 248.712C911.663 247.368 912.363 245.464 913.091 243L895.703 198.984H907.379L919.223 231.492L929.639 198.984H940.391L921.911 251.736C921.239 253.696 920.203 255.46 918.803 257.028C917.459 258.652 915.751 259.912 913.679 260.808C911.663 261.76 909.395 262.236 906.875 262.236C905.979 262.236 905.083 262.152 904.187 261.984C903.291 261.872 902.311 261.648 901.247 261.312V251.568Z" fill="#4E565F"/>
<path d="M401.472 23.56L424.268 103.1L446.736 23.56H480.356L440.176 140H408.36L367.688 23.56H401.472ZM611.207 110.152C611.207 117.149 609.294 122.835 605.467 127.208C601.75 131.581 596.721 134.807 590.379 136.884C584.038 138.961 577.041 140 569.387 140H512.151V23.56H579.719C585.186 23.56 589.887 25.036 593.823 27.988C597.869 30.8307 600.93 34.548 603.007 39.14C605.194 43.732 606.287 48.488 606.287 53.408C606.287 58.7653 604.866 63.9587 602.023 68.988C599.29 74.0173 595.135 77.7893 589.559 80.304C596.229 82.272 601.477 85.716 605.303 90.636C609.239 95.556 611.207 102.061 611.207 110.152ZM578.735 103.592C578.735 101.624 578.353 99.9293 577.587 98.508C576.931 96.9773 576.002 95.7747 574.799 94.9C573.597 94.0253 572.175 93.588 570.535 93.588H544.131V113.104H569.387C571.137 113.104 572.722 112.721 574.143 111.956C575.565 111.191 576.658 110.097 577.423 108.676C578.298 107.255 578.735 105.56 578.735 103.592ZM544.131 50.784V68.66H565.943C567.365 68.66 568.731 68.4413 570.043 68.004C571.355 67.4573 572.449 66.528 573.323 65.216C574.198 63.904 574.635 62.0453 574.635 59.64C574.635 57.4533 574.253 55.7587 573.487 54.556C572.831 53.244 571.902 52.3147 570.699 51.768C569.606 51.112 568.349 50.784 566.927 50.784H544.131ZM788.546 80.796C788.546 73.6893 789.858 66.7467 792.482 59.968C795.216 53.08 799.152 46.848 804.29 41.272C809.429 35.696 815.661 31.268 822.986 27.988C830.421 24.5987 838.785 22.904 848.078 22.904C859.23 22.904 868.961 25.2547 877.27 29.956C885.58 34.548 891.757 40.6707 895.802 48.324L871.366 65.708C869.945 61.8813 867.868 58.9293 865.134 56.852C862.51 54.7747 859.613 53.3533 856.442 52.588C853.381 51.7133 850.374 51.276 847.422 51.276C842.83 51.276 838.84 52.2053 835.45 54.064C832.17 55.8133 829.437 58.164 827.25 61.116C825.173 64.068 823.588 67.348 822.494 70.956C821.51 74.564 821.018 78.172 821.018 81.78C821.018 85.8253 821.62 89.7067 822.822 93.424C824.025 97.1413 825.774 100.476 828.07 103.428C830.366 106.271 833.154 108.512 836.434 110.152C839.824 111.792 843.596 112.612 847.75 112.612C850.702 112.612 853.709 112.175 856.77 111.3C859.832 110.316 862.62 108.785 865.134 106.708C867.649 104.631 869.562 101.843 870.874 98.344L896.95 113.924C894.654 119.609 890.828 124.475 885.47 128.52C880.113 132.565 874.045 135.681 867.266 137.868C860.488 139.945 853.764 140.984 847.094 140.984C838.457 140.984 830.53 139.289 823.314 135.9C816.208 132.401 810.03 127.809 804.782 122.124C799.644 116.329 795.653 109.879 792.81 102.772C789.968 95.556 788.546 88.2307 788.546 80.796Z" fill="#0F4D8A"/>
<path d="M680.322 82.764V140H648.342V23.56H673.27L720.01 82.764V23.56H751.99V140H726.57L680.322 82.764Z" fill="#EF7206"/>
</svg>
