<svg width="125" height="125" viewBox="0 0 125 125" fill="none" xmlns="http://www.w3.org/2000/svg">
<path d="M52.4829 77.4992L40.2245 89.5997C39.5092 90.3057 38.5717 90.6575 37.6342 90.6575C36.6967 90.6575 35.7592 90.3057 35.0438 89.5997C33.6156 88.1878 33.6156 85.8987 35.0438 84.4868L47.3022 72.3863C48.7328 70.9767 51.0522 70.9767 52.4829 72.3863V72.3887C53.9111 73.8006 53.9135 76.0873 52.4829 77.4992Z" fill="#DFE7F4"/>
<path d="M52.483 77.4992L40.2246 89.5997C39.5093 90.3057 38.5718 90.6575 37.6343 90.6575C36.6968 90.6575 35.7593 90.3057 35.0439 89.5997L52.483 72.3887C53.9112 73.8006 53.9137 76.0872 52.483 77.4992Z" fill="#C7CFE1"/>
<path d="M121.338 45.7372C121.338 68.5118 102.564 87.0432 79.485 87.0432C70.9865 87.0432 62.8004 84.5397 55.8155 79.8051C53.6817 78.3594 51.7042 76.7378 49.8902 74.9475C48.0787 73.1573 46.4307 71.2032 44.9658 69.0949C40.1685 62.2037 37.6318 54.1246 37.6318 45.7372C37.6318 22.9602 56.4088 4.43115 79.485 4.43115C91.0256 4.43115 101.49 9.06462 109.065 16.5461C116.646 24.0252 121.338 34.3499 121.338 45.7372Z" fill="#7ED8F6"/>
<path d="M121.338 45.737C121.338 68.5115 102.563 87.043 79.4845 87.043C70.9859 87.043 62.7999 84.5395 55.815 79.8049C53.6812 78.3592 51.7036 76.7376 49.8896 74.9473L109.065 16.5459C116.645 24.025 121.338 34.3497 121.338 45.737Z" fill="#6AA9FF"/>
<path d="M48.6201 45.7397C48.6201 47.7357 50.2598 49.3539 52.2822 49.3539C54.3047 49.3539 55.9444 47.7357 55.9444 45.7397C55.9444 32.9279 66.5054 22.5049 79.4869 22.5049C81.5094 22.5049 83.1491 20.8866 83.1491 18.8906C83.1491 16.8946 81.5094 15.2764 79.4869 15.2764C62.4669 15.2764 48.6201 28.9421 48.6201 45.7397Z" fill="#F0F7FF"/>
<path d="M111.656 13.9896C103.416 5.85516 92.0364 0.816895 79.4875 0.816895C54.3873 0.816895 33.9697 20.9675 33.9697 45.7348C33.9697 54.8595 36.7285 63.6446 41.9458 71.1381C43.5401 73.4295 45.3296 75.5571 47.3023 77.5016C49.275 79.4509 51.4259 81.2122 53.7452 82.7856C61.3404 87.9347 70.2419 90.6574 79.4875 90.6574C104.583 90.6574 125 70.5068 125 45.7348C125 33.3524 119.895 22.1241 111.656 13.9896ZM79.4875 83.429C71.7287 83.429 64.2628 81.1472 57.8907 76.8269C55.9425 75.5065 54.1383 74.0247 52.483 72.3886C50.8253 70.7574 49.3214 68.972 47.9835 67.0468C43.606 60.7604 41.294 53.3922 41.294 45.7348C41.294 24.9528 58.4278 8.04539 79.4875 8.04539C90.0173 8.04539 99.5657 12.2741 106.477 19.1002C113.394 25.9239 117.676 35.3474 117.676 45.7348C117.676 66.5191 100.545 83.429 79.4875 83.429Z" fill="#334973"/>
<path d="M125 45.7349C125 70.5069 104.582 90.6576 79.487 90.6576C70.2413 90.6576 61.3399 87.9348 53.7447 82.7857C51.4253 81.2123 49.2744 79.451 47.3018 77.5017L52.4824 72.3888C54.1377 74.0248 55.9419 75.5066 57.8902 76.827C64.2623 81.1473 71.7281 83.4291 79.487 83.4291C100.544 83.4291 117.676 66.5192 117.676 45.7349C117.676 35.3475 113.393 25.924 106.477 19.1003L111.655 13.9897C119.895 22.1242 125 33.3525 125 45.7349Z" fill="#1F3259"/>
<path d="M45.4001 94.7077L16.6084 123.125C15.177 124.538 12.8572 124.534 11.4302 123.125L6.25195 118.015L1.07126 112.902C-0.354035 111.495 -0.360138 109.204 1.07126 107.791L29.8653 79.3737C30.5514 78.6966 31.4815 78.3159 32.4532 78.3159C33.4249 78.3159 34.3575 78.6966 35.0436 79.3737L40.2243 84.4866L45.4001 89.5972C46.8307 91.0091 46.8307 93.2982 45.4001 94.7077Z" fill="#334973"/>
<path d="M45.4001 94.7079L16.6084 123.126C15.177 124.538 12.8572 124.534 11.4302 123.126L6.25195 118.015L40.2243 84.4868L45.4001 89.5974C46.8307 91.0093 46.8307 93.2984 45.4001 94.7079Z" fill="#1F3259"/>
</svg>
