<svg width="125" height="146" viewBox="0 0 125 146" fill="none" xmlns="http://www.w3.org/2000/svg">
<path d="M62.5 0.795898L0 23.2292V73.0906C0 129.432 60.6486 144.758 61.2589 144.908L62.5 145.205L63.741 144.908C64.3514 144.758 125 129.432 125 73.0906V23.2292L62.5 0.795898Z" fill="#66BB6A"/>
<path d="M62.5 0.795898V145.205L63.741 144.908C64.3514 144.758 125 129.432 125 73.0906V23.2292L62.5 0.795898Z" fill="#4DAF4E"/>
<path d="M52.0832 100.92L27.5674 76.7251L34.9323 69.4565L52.0832 86.3831L90.0674 48.8955L97.4323 56.1641L52.0832 100.92Z" fill="#EDEFF0"/>
<path d="M62.5 90.6399L97.4325 56.1641L90.0675 48.8955L62.5 76.1026V90.6399Z" fill="#CFD8DC"/>
</svg>
