<svg width="236" height="420" viewBox="0 0 236 420" fill="none" xmlns="http://www.w3.org/2000/svg">
<path d="M164.122 167.76V233.893L196.848 414.032C197.061 415.312 196.72 416.592 195.909 417.531C195.098 418.512 193.904 419.067 192.624 419.067H163.525C161.562 419.067 159.856 417.744 159.386 415.867L118 251.728L76.5703 415.867C76.101 417.744 74.3943 419.067 72.4316 419.067H43.333C42.0529 419.067 40.8583 418.512 40.0476 417.531C39.2369 416.592 38.8956 415.312 39.1089 414.032L71.8343 234.107V167.76C71.8343 153.765 68.2503 139.941 61.4236 127.739L2.54361 22.3947C-1.25373 15.6107 0.964941 7.11999 7.57827 3.06666C14.2769 -1.02934 22.8956 0.890657 27.205 7.50399L84.4636 95.3973C91.8876 106.789 104.432 113.573 118.042 113.573C131.61 113.573 144.154 106.789 151.578 95.3973L208.88 7.50399C211.653 3.23732 216.218 0.933323 220.912 0.933323C223.472 0.933323 226.074 1.61599 228.464 3.06666C235.077 7.11999 237.296 15.6107 233.498 22.3947L174.618 127.739C167.792 139.941 164.122 153.765 164.122 167.76Z" fill="#084887"/>
<path d="M158.32 51.92C158.32 74.1067 140.229 92.1973 118.043 92.1973C95.8133 92.1973 77.7227 74.1067 77.7227 51.92C77.7227 29.6907 95.8133 11.6427 118.043 11.6427C140.229 11.6427 158.32 29.6907 158.32 51.92Z" fill="#084887"/>
</svg>
