<svg width="125" height="125" viewBox="0 0 125 125" fill="none" xmlns="http://www.w3.org/2000/svg">
<path d="M18.6825 106.178C42.9806 130.158 82.4066 130.209 106.757 106.178C131.055 82.1973 131.107 43.2867 106.757 19.255C82.4586 -4.72546 43.0326 -4.77654 18.6825 19.255C-5.61556 43.2354 -5.66756 82.146 18.6825 106.178Z" fill="#FD003A"/>
<path d="M18.6826 19.255L106.757 106.178C131.055 82.1973 131.107 43.2867 106.757 19.255C82.4587 -4.72546 43.0327 -4.77654 18.6826 19.255Z" fill="#E50027"/>
<path d="M23.8643 101.065C33.8113 110.882 47.5923 116.915 62.7204 116.915C77.8484 116.915 91.6296 110.882 101.577 101.065C111.524 91.2476 117.637 77.6465 117.637 62.7163C117.637 32.7537 93.0798 8.51758 62.7202 8.51758C47.5923 8.51734 33.811 14.5509 23.864 24.3679C13.917 34.1849 7.80322 47.786 7.80371 62.7161C7.80347 77.6467 13.917 91.2473 23.8643 101.065Z" fill="#E1E4FB"/>
<path d="M23.8643 24.3679L101.577 101.065C111.524 91.2476 117.638 77.6465 117.637 62.7163C117.637 32.7536 93.0801 8.51758 62.7204 8.51758C47.5925 8.51734 33.8113 14.5509 23.8643 24.3679Z" fill="#C5C9F7"/>
<path d="M29.0449 95.9515C37.6448 104.439 49.6128 109.705 62.7204 109.757C75.8279 109.706 87.7956 104.439 96.396 95.9515C104.996 87.4638 110.332 75.6523 110.384 62.7162C110.332 36.793 88.9875 15.7271 62.7202 15.6758C49.6133 15.7269 37.6453 20.9938 29.0449 29.4812C20.4446 37.9686 15.1084 49.7804 15.0566 62.7162C15.1086 75.6525 20.4446 87.4638 29.0449 95.9515Z" fill="#FD003A"/>
<path d="M29.0439 29.4812L96.395 95.9517C104.995 87.4643 110.332 75.6525 110.383 62.7164C110.332 36.793 88.9866 15.7271 62.7192 15.6758C49.6121 15.7269 37.644 20.9933 29.0439 29.4812Z" fill="#E50027"/>
<path d="M34.2253 90.838C41.5303 98.0475 51.6328 102.496 62.72 102.496C73.8066 102.496 83.9099 98.0472 91.2146 90.838C98.5195 83.6286 103.027 73.6579 103.027 62.716C103.027 40.7299 84.9973 22.9363 62.72 22.936C51.6328 22.936 41.53 27.3849 34.2253 34.5941C26.9207 41.8033 22.4131 51.774 22.4131 62.716C22.4131 73.6579 26.9202 83.6284 34.2253 90.838Z" fill="#E1E4FB"/>
<path d="M34.2256 34.5936L91.2148 90.8378C98.5198 83.6284 103.027 73.6577 103.027 62.7157C103.027 40.7294 84.9975 22.9358 62.7202 22.9355C51.6331 22.9355 41.5305 27.3844 34.2256 34.5936Z" fill="#C5C9F7"/>
<path d="M62.7199 95.235C71.838 95.235 80.0756 91.6049 86.0336 85.7247C91.9918 79.8444 95.6698 71.7148 95.6698 62.7158C95.7216 44.7688 80.9047 30.1453 62.7196 30.1964C53.6014 30.1964 45.3639 33.8266 39.4059 39.7067C33.4479 45.5868 29.7697 53.7166 29.7697 62.7156C29.7179 80.6629 44.535 95.2861 62.7199 95.235Z" fill="#FD003A"/>
<path d="M39.4062 39.7069L86.0339 85.7247C91.9922 79.8444 95.6701 71.7148 95.6701 62.7158C95.7219 44.7688 80.905 30.1453 62.72 30.1964C53.6018 30.1967 45.3643 33.8266 39.4062 39.7069Z" fill="#E50027"/>
<path d="M62.7199 87.9748C69.8176 88.0259 76.1899 85.2143 80.8527 80.6122C85.5156 76.01 88.4164 69.67 88.3647 62.6651C88.3649 48.7573 76.8637 37.4064 62.7714 37.4064C55.6738 37.3554 49.2497 40.2185 44.5871 44.8204C39.9245 49.4223 37.0749 55.7111 37.1267 62.7159C37.0747 76.6753 48.5761 88.0264 62.7199 87.9748Z" fill="#E1E4FB"/>
<path d="M44.5869 44.8204L80.8528 80.6122C85.5156 76.0103 88.4165 69.67 88.3647 62.6651C88.365 48.7573 76.8638 37.4064 62.7715 37.4064C55.6736 37.3551 49.2498 40.2188 44.5869 44.8204Z" fill="#C5C9F7"/>
<path d="M62.7202 73.5561C65.7766 73.6072 68.5227 72.3289 70.4915 70.3859C72.4602 68.4429 73.7554 65.7327 73.7036 62.7163C73.7554 56.7338 68.7818 51.8249 62.7202 51.8765C59.6638 51.8254 56.9178 53.1036 54.949 55.0466C52.9803 56.9897 51.6851 59.6998 51.7368 62.7163C51.6846 68.6983 56.6585 73.6074 62.7202 73.5561Z" fill="#FD003A"/>
<path d="M54.9482 55.0464L70.491 70.3859C72.4597 68.4429 73.7549 65.7327 73.7031 62.7163C73.7549 56.7338 68.7812 51.8249 62.7197 51.8765C59.6631 51.8252 56.917 53.1034 54.9482 55.0464Z" fill="#E50027"/>
<path d="M34.2257 39.707L60.1297 65.2724C61.5802 66.7038 63.8597 66.7041 65.3106 65.2724C66.7616 63.8406 66.7611 61.5909 65.3106 60.1592L39.4066 34.5938C37.9559 33.1621 35.6766 33.1621 34.2257 34.5938C32.775 36.0258 32.775 38.2753 34.2257 39.707Z" fill="#0A4EAF"/>
<path d="M34.2256 34.594L65.3105 65.2725C66.7612 63.8408 66.761 61.5911 65.3105 60.1594L39.4065 34.594C37.9556 33.162 35.6765 33.162 34.2256 34.594Z" fill="#063E8B"/>
<path d="M1.06783 22.3225L23.0346 44.0021C23.76 44.7179 24.6406 45.076 25.6772 45.076L40.4938 44.8717C41.53 44.8714 42.5664 44.3604 43.3435 43.5934C44.1206 42.8265 44.6384 41.8036 44.6386 40.7811L44.8456 26.1581C44.8456 25.1351 44.4829 24.266 43.7575 23.5501L21.7912 1.87001C19.5117 -0.379726 15.5227 1.20524 15.5227 4.4778L15.1081 15.7267L3.65816 16.1872C0.394246 16.1356 -1.21171 20.0727 1.06783 22.3225Z" fill="#17ACE8"/>
<path d="M15.1084 15.7267L43.344 43.5932C44.1211 42.8262 44.6389 41.8034 44.6392 40.7808L44.8462 26.1579C44.8462 25.1348 44.4834 24.2657 43.758 23.5499L21.7915 1.87001C19.512 -0.379726 15.5229 1.20524 15.5229 4.4778L15.1084 15.7267Z" fill="#1689FC"/>
</svg>
