<svg height="512" viewBox="0 0 64 64" width="512" xmlns="http://www.w3.org/2000/svg"><g id="_39-caution" data-name="39-caution"><rect fill="#ad9990" height="3" rx="1.5" width="8" x="3" y="7"/><rect fill="#ad9990" height="3" rx="1.5" width="8" x="53" y="7"/><path d="m54 10 1 3h4l1-3z" fill="#a3c8be"/><path d="m4 10 1 3h4l1-3z" fill="#a3c8be"/><path d="m7 1a3 3 0 0 1 3 3v3a0 0 0 0 1 0 0h-6a0 0 0 0 1 0 0v-3a3 3 0 0 1 3-3z" fill="#94350f"/><path d="m57 1a3 3 0 0 1 3 3v3a0 0 0 0 1 0 0h-6a0 0 0 0 1 0 0v-3a3 3 0 0 1 3-3z" fill="#94350f"/><path d="m55 13h4v3h-4z" fill="#ad9990"/><path d="m5 13h4v3h-4z" fill="#ad9990"/><path d="m5 30h4v4h-4z" fill="#ad9990"/><path d="m55 30h4v4h-4z" fill="#ad9990"/><rect fill="#6e5f5c" height="3" rx="1.5" width="8" x="3" y="60"/><rect fill="#6e5f5c" height="3" rx="1.5" width="8" x="53" y="60"/><path d="m55 48h4v12h-4z" fill="#ad9990"/><path d="m5 48h4v12h-4z" fill="#ad9990"/><g fill="#ffc630"><path d="m58 30 5-5v5z"/><path d="m1 24 8-8h-8z"/><path d="m1 42 8-8h-8z"/><path d="m23 16-14 14h-7l14-14z"/><path d="m37 16-14 14h-7l14-14z"/><path d="m51 16-14 14h-7l14-14z"/><path d="m63 16v2l-12 12h-7l14-14z"/></g><path d="m16 16-14 14h-1v-6l8-8z"/><path d="m30 16-14 14h-7l14-14z"/><path d="m44 16-14 14h-7l14-14z"/><path d="m58 16-14 14h-7l14-14z"/><path d="m58 30 5-5v-7l-12 12z"/><path d="m58 48 5-5v5z" fill="#ffc630"/><path d="m23 34-14 14h-7l14-14z" fill="#ffc630"/><path d="m37 34-14 14h-7l14-14z" fill="#ffc630"/><path d="m51 34-14 14h-7l14-14z" fill="#ffc630"/><path d="m63 34v2l-12 12h-7l14-14z" fill="#ffc630"/><path d="m16 34-14 14h-1v-6l8-8z"/><path d="m30 34-14 14h-7l14-14z"/><path d="m44 34-14 14h-7l14-14z"/><path d="m58 34-14 14h-7l14-14z"/><path d="m58 48 5-5v-7l-12 12z"/></g></svg>